<?xml version="1.0" encoding="utf-8"?>
<!-- Generator: Adobe Illustrator 21.1.0, SVG Export Plug-In . SVG Version: 6.00 Build 0)  -->
<svg version="1.1" id="Capa_1" xmlns="http://www.w3.org/2000/svg" xmlns:xlink="http://www.w3.org/1999/xlink" x="0px" y="0px"
	 width="1024px" height="313px" viewBox="0 0 1024 313" style="enable-background:new 0 0 1024 313;" xml:space="preserve">
<style type="text/css">
	.st0{fill:#868688;}
	.st1{fill:#DA8A57;}
	.st2{fill:#FAB220;}
	.st3{fill:#EE722A;}
	.st4{fill:#C4004C;}
</style>
<g>
	<path class="st0" d="M885.8,248.3c0,15.5,0,31.2,0,47.3c-8.5,0-16.4,0-24.1,0c-1-1.6-0.6-3.2-0.6-4.6c0-44.1,0-88.3-0.1-132.4
		c0-3.9,1.3-5.5,4.9-6.5c15.1-4.3,30.3-6.2,45.9-3.9c21.8,3.2,35.6,17.2,38.6,40.8c3.7,29-12.3,54.6-41.7,59.6
		c-5.9,1-11.9,1.1-17.9-0.2C889.3,248,887.9,247.4,885.8,248.3z M885.8,198.1c0,8.5,0.1,17,0,25.4c0,2.5,0.8,3.8,3.3,4.6
		c16.4,5.2,31.2-3.3,35-20c0.9-3.8,1-7.6,1-11.4c-0.3-19.2-12.7-31.8-35.4-28.5c-3,0.4-4.1,1.8-4,4.9
		C885.9,181.5,885.8,189.8,885.8,198.1z"/>
	<path class="st0" d="M511,147.1c0-6.7,0-13.8,0-20.9c0-7.1,0-14.3,0-21.8c8.2,0,16.1,0,24,0c1.2,1.8,0.7,3.6,0.7,5.4
		c0,42.1-0.1,84.3,0.1,126.4c0,4.1-1.4,6-4.9,7.3c-18.2,6.5-36.7,8.2-55.3,1.8c-21.1-7.2-33.5-29.6-30-53.4
		c3.9-26.6,23.5-44,50.5-44.8C500.8,147,505.6,147.1,511,147.1z M510.9,197.6C511,197.6,511,197.6,510.9,197.6
		c0-8.3-0.2-16.7,0.1-25c0.2-3.8-1.5-5-4.7-5.4c-12.1-1.4-23.2,0.4-30.7,11.1c-7.9,11.3-8.1,23.6-1.9,35.5
		c7.6,14.7,22.5,16.2,34.8,13.9c2.4-0.4,2.4-2.3,2.4-4.2C510.9,214.9,510.9,206.3,510.9,197.6z"/>
	<path class="st0" d="M793.5,249.1c-27.5-0.1-46.8-19-47.7-46.6c-0.5-17.9,3.7-33.9,18.4-45.3c15.6-12.1,33.3-13,51-5.8
		c17.1,7,24.7,21.3,26.8,39.1c1.1,9.3,0.4,18.3-2.6,27.1C832.5,237.8,815.8,249.1,793.5,249.1z M817.2,198.4
		c0.4-7-0.7-13.9-4.2-20.1c-4.2-7.6-10.7-11.5-19.5-11.4c-8.5,0.1-15,3.8-18.4,11.4c-6.1,13.4-6.2,27.2,0.5,40.4
		c4,7.9,11.1,11.8,20.1,11.2c9-0.6,15.1-5.5,18.5-13.8C816.5,210.5,817.4,204.6,817.2,198.4z"/>
	<path class="st0" d="M364,246.8c-8.6,0-16.3,0-24,0c-1.1-1.8-0.7-3.5-0.7-5.2c0-29.5,0.1-59-0.1-88.5c0-5,1.5-6.4,6.2-6
		c4.3,0.4,8.7,0.4,13,0.1c4.6-0.4,6,1.5,5.4,5.8c-0.2,1.6,0,3.2,0,5.8c3.3-1.9,5.8-3.4,8.3-4.9c7.5-4.3,15.5-6.8,24.2-6.8
		c16.9,0,29.8,11,30.4,28c0.8,23.5,0.3,47,0.3,70.5c0,0.3-0.3,0.6-0.5,1.2c-7.6,0-15.3,0-22.9,0c-1.1-2-0.7-3.8-0.7-5.6
		c0-16.5,0-33-0.1-49.5c0-2.8-0.2-5.7-0.6-8.4c-1.7-12.8-9.3-17.4-21.6-13.5c-0.9,0.3-1.9,0.7-2.8,1c-13,5.1-13.8,6.3-13.8,20.2
		c0,16.8,0,33.7,0,50.5C364,243.1,364,244.8,364,246.8z"/>
	<path class="st0" d="M640.5,204.9c-10.5,0-20.8,0-31.1,0c-10.1,0-20.2,0-30.3,0c-0.7,11.3,7.4,20.7,19.7,23.5
		c11.1,2.4,21.4-0.4,31.8-5.9c1.9,5,3.7,9.6,5.4,14.2c0.5,1.5-0.2,2.5-1.5,3.3c-17.1,10.9-45.5,13.4-62.4,0.5
		c-15.6-12-19.4-28.8-18.5-47.2c0.5-10.4,3.5-20.4,9.8-28.9c10.2-13.8,24.1-19,40.8-16.6c17.7,2.5,28.5,13.5,33.7,30.1
		C640.6,186.3,641.4,195.2,640.5,204.9z M578.3,186.7c12.4,0,24.4,0,36.4,0c0.4-12.3-7.6-21.1-18.7-20.8
		C585.8,166.2,577.6,175.7,578.3,186.7z"/>
	<path class="st0" d="M732.2,173.7c-21.5-10.4-35.7-9.5-45.8,2.4c-9,10.6-9.5,30-1.1,42.1c8.3,12,20.4,13.3,44.7,4.6
		c2.8,4.2,3.8,9.3,5.8,14c0.7,1.6-0.5,2.5-1.7,3.2c-21.5,13.1-55.1,14-71.1-10.7c-15.3-23.6-11.4-67.1,24.7-79.5
		c13.6-4.7,27.2-3.7,40.5,1.8c2.8,1.2,4.2,2.7,4,6C731.9,162.8,732.2,168,732.2,173.7z"/>
	<path class="st0" d="M314,246.8c-8.2,0-15.8,0-23.8,0c0-47.5,0-94.7,0-142.4c7.8,0,15.7,0,23.8,0C314,151.9,314,199.1,314,246.8z"
		/>
	<path class="st0" d="M972.1,246.8c0-33.4,0-66.2,0-99.3c7.9,0,15.6,0,23.8,0c0,33,0,66,0,99.3C988,246.8,980.3,246.8,972.1,246.8z"
		/>
	<path class="st0" d="M983.8,130.1c-7.2,0-12.7-5.6-12.6-12.7c0.1-7,5.8-12.6,12.8-12.5c7,0.1,12.5,5.4,12.6,12.2
		C996.7,124.4,991.1,130.1,983.8,130.1z"/>
	<path class="st1" d="M98.6,236.5c4.8,0.7,7.9,3.6,10.2,7.7C104.1,243.3,101.2,240.2,98.6,236.5z"/>
	<path class="st2" d="M218.8,127.6c-0.1-7.3-2.5-14-8.4-19c0,0-0.1-0.1-0.1-0.1c-0.4-1-1.1-1.6-2.2-1.7c0,0,0,0,0,0
		c-0.4-1.7-2.8-1.9-2.8-4.2c1-0.8,2.2-1.7,3.4-2.7c8.6-7.2,11.8-16.5,9.3-27.2c-2.4-10.5-9-17.8-19.8-20.3
		c-9.6-2.2-18.5-0.4-25.4,7.4c0,0,0,0,0,0c-6.6,6-9.1,13.4-7.7,22.1c0.1,0.6,0.1,1.3,0.2,1.9c0.5,5.6,2.5,10.3,7.3,13.6
		c0,0.2,0.1,0.4,0.3,0.5c0.4,2.8,4.1,2.8,4.5,5.3c-0.4,2.3-3.3,2.4-3.7,4.5c0,0,0,0,0,0c-0.4,0.3-0.7,0.6-1.1,0.9c0,0,0,0,0,0
		c-5.6,4.7-7.9,10.9-7.9,18c0,16.5,0,32.9,0.1,49.4c0,11,0.2,21.9,0.3,32.9c0,1,0,1.9-0.1,2.9c-0.7,4.9-1.1,9.9-2.1,14.8
		c-3.7,18.2-11.2,34.1-28.5,43.4c-2.1,1.1-4.2,2.4-6.3,3.6c1.1,1.7,2.4,1.9,3.7,2.1c13.8,1.9,27.6,1.6,40.9-3
		c7.6-2.7,15.4-5.4,20.6-12.3c0,0,0.2-0.1,0.2-0.1c1.8-0.4,2.9-1.6,3.7-3.2c0,0,0,0,0,0c1-0.3,1.7-1,2-2c0,0,0,0,0,0
		c0.8-0.2,1.2-0.7,1.3-1.6c0,0,0.2-0.2,0.2-0.2c1.9-0.6,2.9-2.1,4-3.6c9.2-12.6,14.1-26.7,14.2-42.3
		C219,180.9,219,154.3,218.8,127.6z"/>
	<path class="st3" d="M146.2,162.1c0-22.6,0-45.3,0-67.9c0-6.8-1.3-13.2-6.2-18.3c0,0,0,0,0,0c-2-2.9-4.3-5.4-7.8-6.5
		c-0.1-0.2-0.3-0.4-0.5-0.4c1.6-4.1,7.1-4.5,8.3-8.9c0,0,0,0,0,0c7.6-8.9,8.1-23.5,1.2-31.3c0,0,0,0,0,0c-0.3-0.4-0.6-0.7-0.8-1.1
		c0,0,0-0.1,0-0.1c-3.7-6.9-10.4-9.5-17.4-10.5c-19.7-3-35.6,16.4-28.9,35.3c1.7,4.9,4,9.9,9.5,12.1c0,0,0.1,0.1,0.1,0.1
		c1,1.1,2,2.3,3.1,3.5c-1.1,1.2-2.1,2.4-3.1,3.5c0,0,0.2,0.2,0.2,0.2l-0.2-0.1c-1.4,0.2-2.5,0.7-2.8,2.3c-7,5.2-8.4,12.8-8.5,20.7
		c-0.1,41.2-0.1,82.4,0,123.6c0,6.6,0.9,13.3,6.2,18.2c0,0,0,0.1,0,0.1c4.8,0.7,7.9,3.6,10.2,7.7c0,0,0,0,0,0c1.1,1.4,2.8,1.6,4.4,2
		c17.1,3.7,32.5-8.1,32.9-25.6C146.5,201.1,146.2,181.6,146.2,162.1z"/>
	<path class="st4" d="M84.7,247.5c0,0-0.2-0.2-0.2-0.2h0c-1.8-2.8-3.6-5.6-5.4-8.5c0,0,0,0,0,0c-3.1-8.3-4.7-17-4.7-25.8
		c-0.1-27.5-0.4-54.9-0.3-82.4c0.1-11.6-3.7-20.7-14.1-26.6c2-1.9,4.1-3.8,6.1-5.8c9.9-9.9,10.8-26.7,1.6-36.6
		c-12-13-27.8-12.1-37.9-2.8c-0.3,0.3-0.7,0.7-1,1c0,0,0,0,0,0c-5.6,4.6-8,10.9-8.3,17.9c-0.6,11.2,4.8,19.5,13.9,25.5
		c-2,2.3-4.6,3-5.9,5.3c0,0-0.1,0.1-0.1,0.1c-5.8,5.2-8.1,12-8.1,19.6c-0.1,27.6,0,55.1,0.1,82.7c0,0.4,0.1,0.8,0.1,1.2
		c0.3,5.5,0.2,10.9,1.4,16.3c5,21.7,17.5,36.7,39,43.7c0.5,0.8,1.3,0.8,2.1,0.7c22.4,8.4,50.1-1.4,56.6-13.3
		C106.2,260.6,94.3,257.2,84.7,247.5z"/>
</g>
</svg>
